<svg xmlns="http://www.w3.org/2000/svg" viewBox="0 0 1600 900" role="img" aria-labelledby="title desc">
  <title id="title">r/Changing in Public hero accent</title>
  <desc id="desc">Abstract neon changing-room curtain, direction arrows, grid and ambient light background.</desc>
  <defs>
    <linearGradient id="brand" x1="0" y1="0" x2="1" y2="1"><stop stop-color="#66E0FF"/><stop offset="0.5" stop-color="#FFE66D"/><stop offset="1" stop-color="#FF7B54"/></linearGradient>
    <radialGradient id="g1" cx="0.2" cy="0.18" r="0.85"><stop stop-color="#66E0FF" stop-opacity="0.32"/><stop offset="0.7" stop-color="#66E0FF" stop-opacity="0"/></radialGradient>
    <radialGradient id="g2" cx="0.85" cy="0.72" r="0.75"><stop stop-color="#FF7B54" stop-opacity="0.28"/><stop offset="0.7" stop-color="#FF7B54" stop-opacity="0"/></radialGradient>
    <pattern id="grid" width="80" height="80" patternUnits="userSpaceOnUse"><path d="M80 0H0V80" fill="none" stroke="#66E0FF" stroke-opacity="0.11" stroke-width="1"/></pattern>
  </defs>
  <rect width="1600" height="900" fill="transparent"/>
  <rect width="1600" height="900" fill="url(#g1)"/>
  <rect width="1600" height="900" fill="url(#g2)"/>
  <rect width="1600" height="900" fill="url(#grid)" opacity=".55"/>
  <path d="M180 154 C378 60 626 76 818 206 C1002 330 1212 344 1452 226" fill="none" stroke="url(#brand)" stroke-width="7" opacity=".42"/>
  <path d="M180 708 C392 826 634 830 845 702 C1048 578 1250 602 1432 746" fill="none" stroke="url(#brand)" stroke-width="8" opacity=".24"/>
  <g opacity=".55" transform="translate(1030 155)">
    <path d="M0 0h270" stroke="#66E0FF" stroke-width="18" stroke-linecap="round"/>
    <path d="M210 -48l76 57-76 57" fill="none" stroke="#F7FBFF" stroke-width="18" stroke-linecap="round" stroke-linejoin="round"/>
    <path d="M270 150H0" stroke="#FF7B54" stroke-width="18" stroke-linecap="round"/>
    <path d="M62 102l-76 57 76 57" fill="none" stroke="#F7FBFF" stroke-width="18" stroke-linecap="round" stroke-linejoin="round"/>
  </g>
  <g opacity=".40" transform="translate(190 190)">
    <path d="M0 0h315" stroke="#66E0FF" stroke-width="11" stroke-linecap="round"/>
    <path d="M24 4c44 64 64 132 60 203-4 68-31 130-80 186" fill="none" stroke="#66E0FF" stroke-width="24" stroke-linecap="round"/>
    <path d="M290 4c-44 64-64 132-60 203 4 68 31 130 80 186" fill="none" stroke="#FF7B54" stroke-width="24" stroke-linecap="round"/>
  </g>
</svg>