<svg xmlns="http://www.w3.org/2000/svg" viewBox="0 0 400 400" role="img" aria-labelledby="title desc">
  <title id="title">r/Changing in Public pattern</title>
  <desc id="desc">Repeating neon arrows, hanger and curtain motif pattern.</desc>
  <defs><linearGradient id="brand" x1="0" y1="0" x2="1" y2="1"><stop stop-color="#66E0FF"/><stop offset=".5" stop-color="#FFE66D"/><stop offset="1" stop-color="#FF7B54"/></linearGradient></defs>
  <rect width="400" height="400" fill="transparent"/>
  <g fill="none" stroke="url(#brand)" stroke-linecap="round" stroke-linejoin="round" opacity=".42">
    <path d="M50 70h82" stroke-width="8"/><path d="M108 42l34 32-34 32" stroke-width="8"/>
    <path d="M350 330h-82" stroke-width="8"/><path d="M292 302l-34 32 34 32" stroke-width="8"/>
    <path d="M165 160c18 16 42 16 60 0" stroke-width="7"/><path d="M195 123c18 8 25 18 22 30-2 12-12 20-25 20" stroke-width="7"/>
    <path d="M70 250c20-28 30-58 30-90" stroke-width="10"/><path d="M330 150c-20 28-30 58-30 90" stroke-width="10"/>
  </g>
</svg>