<svg xmlns="http://www.w3.org/2000/svg" viewBox="0 0 1536 384" role="img" aria-labelledby="title desc">
  <title id="title">Only One Naked logo</title>
  <desc id="desc">Horizontal logo for the r/onlyonenaked contrast-gallery site.</desc>
  <defs>
    <linearGradient id="ron-word" x1="420" y1="78" x2="1330" y2="310" gradientUnits="userSpaceOnUse">
      <stop offset="0" stop-color="#F8FAFC"/>
      <stop offset="0.5" stop-color="#37D67A"/>
      <stop offset="1" stop-color="#FF4F8B"/>
    </linearGradient>
    <linearGradient id="ron-mark-grad" x1="50" y1="34" x2="330" y2="340" gradientUnits="userSpaceOnUse">
      <stop offset="0" stop-color="#F8FAFC"/>
      <stop offset="0.45" stop-color="#37D67A"/>
      <stop offset="1" stop-color="#FF4F8B"/>
    </linearGradient>
    <radialGradient id="ron-mark-glow" cx="50%" cy="42%" r="60%">
      <stop offset="0" stop-color="#F8FAFC" stop-opacity="0.32"/>
      <stop offset="0.48" stop-color="#37D67A" stop-opacity="0.16"/>
      <stop offset="1" stop-color="#FF4F8B" stop-opacity="0"/>
    </radialGradient>
    <filter id="logoShadow" x="-20%" y="-30%" width="140%" height="170%">
      <feDropShadow dx="0" dy="18" stdDeviation="18" flood-color="#000000" flood-opacity="0.42"/>
    </filter>
  </defs>
  <g filter="url(#logoShadow)">
    <rect x="48" y="42" width="300" height="300" rx="78" fill="#111827"/>
    <rect x="60" y="54" width="276" height="276" rx="68" fill="none" stroke="url(#ron-mark-grad)" stroke-width="8"/>
    <path d="M92 100C136 78 169 90 198 111C227 90 260 78 304 100V284C260 306 227 294 198 273C169 294 136 306 92 284V100Z" fill="#F8FAFC" opacity="0.08"/>
    <ellipse cx="198" cy="205" rx="78" ry="108" fill="url(#ron-mark-glow)"/>
    <circle cx="198" cy="135" r="25" fill="#F8FAFC"/>
    <path d="M198 167C171 167 150 190 150 220v59c0 8 6 14 14 14h68c8 0 14-6 14-14v-59c0-30-21-53-48-53Z" fill="#F8FAFC"/>
    <path d="M198 167C219 173 234 195 234 222v57c0 8-6 14-14 14h-22V167Z" fill="#37D67A" opacity="0.24"/>
    <path d="M164 292h68" stroke="#FF4F8B" stroke-width="9" stroke-linecap="round"/>
  </g>
  <g>
    <text x="400" y="178" fill="url(#ron-word)" font-family="Inter, ui-sans-serif, system-ui, -apple-system, BlinkMacSystemFont, Segoe UI, sans-serif" font-size="92" font-weight="950" letter-spacing="-4">Only One Naked</text>
    <text x="404" y="246" fill="#E5E7EB" font-family="Inter, ui-sans-serif, system-ui, -apple-system, BlinkMacSystemFont, Segoe UI, sans-serif" font-size="32" font-weight="800" letter-spacing="8">CONTRAST GALLERY</text>
    <path d="M404 280h332" stroke="#37D67A" stroke-width="8" stroke-linecap="round"/>
    <path d="M760 280h210" stroke="#FF4F8B" stroke-width="8" stroke-linecap="round" opacity="0.82"/>
  </g>
</svg>
