<svg xmlns="http://www.w3.org/2000/svg" viewBox="0 0 1024 1024" role="img" aria-labelledby="title desc">
  <title id="title">Only One Naked social avatar</title>
  <desc id="desc">Square social avatar for the r/onlyonenaked contrast-gallery brand.</desc>
  <defs>
    <linearGradient id="bg" x1="80" y1="40" x2="960" y2="980" gradientUnits="userSpaceOnUse">
      <stop offset="0" stop-color="#090B0E"/>
      <stop offset="0.54" stop-color="#15191E"/>
      <stop offset="1" stop-color="#120D12"/>
    </linearGradient>
    <linearGradient id="accent" x1="156" y1="124" x2="872" y2="900" gradientUnits="userSpaceOnUse">
      <stop offset="0" stop-color="#F8FAFC"/>
      <stop offset="0.48" stop-color="#37D67A"/>
      <stop offset="1" stop-color="#FF4F8B"/>
    </linearGradient>
    <radialGradient id="glow" cx="50%" cy="42%" r="66%">
      <stop offset="0" stop-color="#F8FAFC" stop-opacity="0.38"/>
      <stop offset="0.45" stop-color="#37D67A" stop-opacity="0.2"/>
      <stop offset="1" stop-color="#FF4F8B" stop-opacity="0"/>
    </radialGradient>
    <filter id="shadow" x="-20%" y="-20%" width="140%" height="150%">
      <feDropShadow dx="0" dy="34" stdDeviation="34" flood-color="#000000" flood-opacity="0.48"/>
    </filter>
  </defs>
  <rect width="1024" height="1024" rx="232" fill="url(#bg)"/>
  <circle cx="208" cy="188" r="210" fill="#F8FAFC" opacity="0.06"/>
  <circle cx="846" cy="824" r="260" fill="#FF4F8B" opacity="0.09"/>
  <rect x="102" y="102" width="820" height="820" rx="196" fill="none" stroke="url(#accent)" stroke-width="20"/>
  <path d="M168 220C300 146 402 174 512 244C622 174 724 146 856 220V806C724 880 622 852 512 782C402 852 300 880 168 806V220Z" fill="#000" opacity="0.2"/>
  <path d="M190 242C306 184 402 204 512 276V746C402 674 306 654 190 712V242Z" fill="#F8FAFC" opacity="0.1"/>
  <path d="M834 242C718 184 622 204 512 276V746C622 674 718 654 834 712V242Z" fill="#000" opacity="0.34"/>
  <ellipse cx="512" cy="554" rx="260" ry="350" fill="url(#glow)"/>
  <g filter="url(#shadow)">
    <circle cx="512" cy="350" r="76" fill="#F8FAFC"/>
    <path d="M512 442C432 442 370 511 370 600v154c0 22 18 40 40 40h204c22 0 40-18 40-40V600c0-89-62-158-142-158Z" fill="#F8FAFC"/>
    <path d="M512 442C570 458 616 522 616 602v152c0 22-18 40-40 40h-64V442Z" fill="#37D67A" opacity="0.25"/>
    <path d="M410 790h204" stroke="#FF4F8B" stroke-width="28" stroke-linecap="round"/>
  </g>
  <text x="512" y="928" fill="#F8FAFC" font-family="Inter, ui-sans-serif, system-ui, sans-serif" font-size="56" font-weight="950" text-anchor="middle" letter-spacing="-2">Only One Naked</text>
</svg>
