<svg xmlns="http://www.w3.org/2000/svg" viewBox="0 0 1536 360" role="img" aria-label="Exhibitionist Girl logo">
  <defs>
    <linearGradient id="g" x1="72" y1="52" x2="1460" y2="330" gradientUnits="userSpaceOnUse">
      <stop stop-color="#ff65b7"/>
      <stop offset="0.47" stop-color="#ffc857"/>
      <stop offset="1" stop-color="#8cf3ff"/>
    </linearGradient>
    <linearGradient id="panel" x1="0" y1="0" x2="1" y2="1">
      <stop stop-color="#21101f"/>
      <stop offset="1" stop-color="#10070f"/>
    </linearGradient>
    <filter id="glow" x="-20%" y="-40%" width="140%" height="180%">
      <feGaussianBlur stdDeviation="7" result="blur"/>
      <feColorMatrix in="blur" type="matrix" values="1 0 0 0 1 0 1 0 0 0.35 0 0 1 0 0.75 0 0 0 0.48 0" result="glow"/>
      <feMerge><feMergeNode in="glow"/><feMergeNode in="SourceGraphic"/></feMerge>
    </filter>
  </defs>
  <rect x="32" y="36" width="1472" height="288" rx="70" fill="url(#panel)" opacity="0.92"/>
  <rect x="32" y="36" width="1472" height="288" rx="70" fill="none" stroke="url(#g)" stroke-width="5" opacity="0.85"/>
  <g transform="translate(78 68) scale(0.43)">
    <rect x="42" y="42" width="428" height="428" rx="126" fill="#160914" opacity="0.98"/>
    <rect x="61" y="61" width="390" height="390" rx="110" fill="none" stroke="url(#g)" stroke-width="12"/>
    <path d="M117 338 C162 292 180 234 171 168 C217 191 247 225 256 270 C276 214 322 173 384 151 C363 216 364 278 399 337 C356 327 322 303 298 265 C293 314 276 349 247 374 C222 338 203 299 190 258 C174 298 151 324 117 338Z" fill="url(#g)" filter="url(#glow)" opacity="0.96"/>
    <circle cx="256" cy="242" r="42" fill="none" stroke="#fff7fd" stroke-opacity="0.86" stroke-width="11"/>
    <circle cx="256" cy="242" r="15" fill="#8cf3ff"/>
  </g>
  <g filter="url(#glow)">
    <text x="324" y="164" font-family="Inter, Arial, Helvetica, sans-serif" font-weight="950" font-size="76" letter-spacing="-2" fill="#fff7fd">Exhibitionist</text>
    <text x="324" y="244" font-family="Inter, Arial, Helvetica, sans-serif" font-weight="950" font-size="86" letter-spacing="-2" fill="url(#g)">Girl</text>
  </g>
  <text x="562" y="244" font-family="Inter, Arial, Helvetica, sans-serif" font-weight="800" font-size="24" letter-spacing="5" fill="#ffc4e5" opacity="0.92">CREATOR DISCOVERY</text>
  <path d="M1110 226h236" stroke="url(#g)" stroke-width="8" stroke-linecap="round" opacity="0.72"/>
  <path d="M1360 226h42" stroke="#fff7fd" stroke-width="8" stroke-linecap="round" opacity="0.5"/>
</svg>