<svg xmlns="http://www.w3.org/2000/svg" viewBox="0 0 512 512" role="img" aria-label="Exhibitionist Girl mark">
  <defs>
    <linearGradient id="g" x1="76" y1="76" x2="438" y2="438" gradientUnits="userSpaceOnUse">
      <stop stop-color="#ff65b7"/>
      <stop offset="0.52" stop-color="#ffc857"/>
      <stop offset="1" stop-color="#8cf3ff"/>
    </linearGradient>
    <radialGradient id="halo" cx="50%" cy="43%" r="58%">
      <stop stop-color="#ff9ad3" stop-opacity="0.62"/>
      <stop offset="0.6" stop-color="#ff65b7" stop-opacity="0.18"/>
      <stop offset="1" stop-color="#ff65b7" stop-opacity="0"/>
    </radialGradient>
    <filter id="softGlow" x="-40%" y="-40%" width="180%" height="180%">
      <feGaussianBlur stdDeviation="10" result="blur"/>
      <feColorMatrix in="blur" type="matrix" values="1 0 0 0 1 0 1 0 0 0.33 0 0 1 0 0.76 0 0 0 0.75 0" result="glow"/>
      <feMerge><feMergeNode in="glow"/><feMergeNode in="SourceGraphic"/></feMerge>
    </filter>
  </defs>
  <rect x="42" y="42" width="428" height="428" rx="126" fill="#160914" opacity="0.98"/>
  <rect x="42" y="42" width="428" height="428" rx="126" fill="url(#halo)"/>
  <rect x="61" y="61" width="390" height="390" rx="110" fill="none" stroke="url(#g)" stroke-width="12"/>
  <path d="M117 338 C162 292 180 234 171 168 C217 191 247 225 256 270 C276 214 322 173 384 151 C363 216 364 278 399 337 C356 327 322 303 298 265 C293 314 276 349 247 374 C222 338 203 299 190 258 C174 298 151 324 117 338Z" fill="url(#g)" filter="url(#softGlow)" opacity="0.96"/>
  <circle cx="256" cy="242" r="58" fill="#10070f" opacity="0.66"/>
  <circle cx="256" cy="242" r="42" fill="none" stroke="#fff7fd" stroke-opacity="0.86" stroke-width="11"/>
  <circle cx="256" cy="242" r="15" fill="#8cf3ff"/>
  <path d="M168 131h74l14 28h87c30 0 54 24 54 54v134c0 30-24 54-54 54H169c-30 0-54-24-54-54V185c0-30 24-54 53-54Z" fill="none" stroke="#fff7fd" stroke-opacity="0.72" stroke-width="9" stroke-linejoin="round"/>
  <path d="M144 382c57-22 100-26 129-12 30 14 61 10 95-13" fill="none" stroke="#ffc857" stroke-width="9" stroke-linecap="round" opacity="0.9"/>
</svg>