<svg xmlns="http://www.w3.org/2000/svg" width="900" height="220" viewBox="0 0 900 220" role="img" aria-labelledby="title desc">
  <title id="title">r/FlashingAndFlaunting</title>
  <desc id="desc">Horizontal logo for r/FlashingAndFlaunting.</desc>
  <defs>
    <linearGradient id="mark-bg" x1="22" y1="15" x2="205" y2="205" gradientUnits="userSpaceOnUse">
      <stop stop-color="#10131B"/>
      <stop offset="1" stop-color="#07080B"/>
    </linearGradient>
    <linearGradient id="neon" x1="48" y1="52" x2="180" y2="178" gradientUnits="userSpaceOnUse">
      <stop stop-color="#30F4FF"/>
      <stop offset="0.48" stop-color="#FF2D8F"/>
      <stop offset="1" stop-color="#FFD15A"/>
    </linearGradient>
    <linearGradient id="word" x1="242" y1="48" x2="842" y2="170" gradientUnits="userSpaceOnUse">
      <stop stop-color="#F7FBFF"/>
      <stop offset="0.56" stop-color="#C9FAFF"/>
      <stop offset="1" stop-color="#FFE6A0"/>
    </linearGradient>
    <filter id="glow" x="-20%" y="-30%" width="140%" height="160%" color-interpolation-filters="sRGB">
      <feDropShadow dx="0" dy="0" stdDeviation="9" flood-color="#30F4FF" flood-opacity="0.34"/>
      <feDropShadow dx="0" dy="0" stdDeviation="13" flood-color="#FF2D8F" flood-opacity="0.28"/>
    </filter>
  </defs>
  <rect x="4" y="4" width="212" height="212" rx="48" fill="url(#mark-bg)" stroke="#FFFFFF" stroke-opacity="0.13"/>
  <path d="M52 70h116c11 0 20 9 20 20v78c0 11-9 20-20 20H52c-11 0-20-9-20-20V90c0-11 9-20 20-20Z" fill="#0C0E14" stroke="url(#neon)" stroke-width="8" filter="url(#glow)"/>
  <path d="M51 110h119M51 143h119" stroke="#273040" stroke-width="5" stroke-linecap="round"/>
  <path d="M76 168V93h47v15H96v16h24v15H96v29H76Zm61 0V93h46v15h-26v18h23v15h-23v27h-20Z" fill="#F7FBFF"/>
  <path d="M50 34l14 24M28 58l27 11M170 34l-15 24M193 59l-28 10" stroke="#FFD15A" stroke-width="7" stroke-linecap="round"/>
  <text x="248" y="104" fill="#8CEEFF" font-family="Inter, Arial, sans-serif" font-size="28" font-weight="900" letter-spacing="5">UNOFFICIAL BOARD</text>
  <text x="247" y="157" fill="url(#word)" font-family="Inter, Arial, sans-serif" font-size="58" font-weight="950">Flashing &amp; Flaunting</text>
  <path d="M250 178h493" stroke="url(#neon)" stroke-width="5" stroke-linecap="round"/>
</svg>
