<svg xmlns="http://www.w3.org/2000/svg" width="970" height="250" viewBox="0 0 970 250" role="img" aria-labelledby="title-ronlyonenaked-1 desc-ronlyonenaked-1">
  <title id="title-ronlyonenaked-1">Advertise here on r/onlyonenaked</title>
  <desc id="desc-ronlyonenaked-1">Themed advertising house creative for ronlyonenaked.com.</desc>
  <defs>
    <linearGradient id="bg-ronlyonenaked-1" x1="0" y1="0" x2="1" y2="1">
      <stop offset="0" stop-color="#0e1114"/>
      <stop offset="0.48" stop-color="#f1f5f9" stop-opacity="0.34"/>
      <stop offset="1" stop-color="#ff4f8b" stop-opacity="0.5"/>
    </linearGradient>
    <radialGradient id="pulse-ronlyonenaked-1" cx="72%" cy="50%" r="60%">
      <stop offset="0" stop-color="#ff4f8b" stop-opacity="0.9"/>
      <stop offset="0.42" stop-color="#f1f5f9" stop-opacity="0.34"/>
      <stop offset="1" stop-color="#0e1114" stop-opacity="0"/>
    </radialGradient>
    <filter id="soft-ronlyonenaked-1" x="-20%" y="-20%" width="140%" height="140%">
      <feGaussianBlur stdDeviation="16"/>
    </filter>
  </defs>
  <rect width="970" height="250" rx="24" fill="url(#bg-ronlyonenaked-1)"/>
  <rect x="1" y="1" width="968" height="248" rx="23" fill="none" stroke="#f1f5f9" stroke-opacity="0.36" stroke-width="2"/>
  <circle cx="760" cy="64" r="148" fill="url(#pulse-ronlyonenaked-1)" filter="url(#soft-ronlyonenaked-1)"/>
  <path d="M88 205 C220 96, 340 220, 490 108 S720 44, 895 150" fill="none" stroke="#ff4f8b" stroke-opacity="0.46" stroke-width="5"/>
  <path d="M690 36 h190 a22 22 0 0 1 22 22 v134 a22 22 0 0 1-22 22 H690 a22 22 0 0 1-22-22 V58 a22 22 0 0 1 22-22Z" fill="#ffffff" fill-opacity="0.08" stroke="#ffffff" stroke-opacity="0.16"/>
  <g transform="translate(716 68)">
    <circle cx="36" cy="36" r="34" fill="#f1f5f9" fill-opacity="0.2" stroke="#f1f5f9" stroke-opacity="0.75"/>
    <circle cx="103" cy="36" r="34" fill="#ff4f8b" fill-opacity="0.18" stroke="#ff4f8b" stroke-opacity="0.75"/>
    <circle cx="69" cy="88" r="34" fill="#ffffff" fill-opacity="0.1" stroke="#ffffff" stroke-opacity="0.4"/>
  </g>
  <text x="52" y="58" fill="#f1f5f9" font-family="Inter, Arial, sans-serif" font-size="18" font-weight="800" letter-spacing="1.2">SPONSORED SLOTS OPEN</text>
  <text x="52" y="116" fill="#ffffff" font-family="Inter, Arial, sans-serif" font-size="46" font-weight="900" letter-spacing="0">Advertise here</text>
  <text x="52" y="154" fill="#ffffff" fill-opacity="0.82" font-family="Inter, Arial, sans-serif" font-size="22" font-weight="650">Reach a focused Reddit-grown audience</text>
  <text x="52" y="205" fill="#ffffff" font-family="Inter, Arial, sans-serif" font-size="18" font-weight="900">r/onlyonenaked</text>
  <text x="338" y="205" fill="#ff4f8b" font-family="Inter, Arial, sans-serif" font-size="18" font-weight="900">contrast gallery</text>
  <text x="728" y="205" fill="#ffffff" fill-opacity="0.92" font-family="Inter, Arial, sans-serif" font-size="18" font-weight="900">Contact us</text>
</svg>
