<svg xmlns="http://www.w3.org/2000/svg" width="970" height="250" viewBox="0 0 970 250" role="img" aria-labelledby="title-routdoorgirls-2 desc-routdoorgirls-2">
  <title id="title-routdoorgirls-2">Own this placement on r/outdoorgirls</title>
  <desc id="desc-routdoorgirls-2">Themed advertising house creative for routdoorgirls.com.</desc>
  <defs>
    <linearGradient id="bg-routdoorgirls-2" x1="0" y1="0" x2="1" y2="1">
      <stop offset="0" stop-color="#07120d"/>
      <stop offset="0.48" stop-color="#9be57f" stop-opacity="0.34"/>
      <stop offset="1" stop-color="#5ac8fa" stop-opacity="0.5"/>
    </linearGradient>
    <radialGradient id="pulse-routdoorgirls-2" cx="18%" cy="50%" r="60%">
      <stop offset="0" stop-color="#5ac8fa" stop-opacity="0.9"/>
      <stop offset="0.42" stop-color="#9be57f" stop-opacity="0.34"/>
      <stop offset="1" stop-color="#07120d" stop-opacity="0"/>
    </radialGradient>
    <filter id="soft-routdoorgirls-2" x="-20%" y="-20%" width="140%" height="140%">
      <feGaussianBlur stdDeviation="16"/>
    </filter>
  </defs>
  <rect width="970" height="250" rx="24" fill="url(#bg-routdoorgirls-2)"/>
  <rect x="1" y="1" width="968" height="248" rx="23" fill="none" stroke="#9be57f" stroke-opacity="0.36" stroke-width="2"/>
  <circle cx="170" cy="196" r="148" fill="url(#pulse-routdoorgirls-2)" filter="url(#soft-routdoorgirls-2)"/>
  <path d="M106 205 C220 114, 340 208, 490 108 S720 44, 895 140" fill="none" stroke="#5ac8fa" stroke-opacity="0.46" stroke-width="5"/>
  <path d="M690 36 h190 a22 22 0 0 1 22 22 v134 a22 22 0 0 1-22 22 H690 a22 22 0 0 1-22-22 V58 a22 22 0 0 1 22-22Z" fill="#ffffff" fill-opacity="0.08" stroke="#ffffff" stroke-opacity="0.16"/>
  <g transform="translate(716 68)">
    <circle cx="36" cy="36" r="34" fill="#9be57f" fill-opacity="0.2" stroke="#9be57f" stroke-opacity="0.75"/>
    <circle cx="103" cy="36" r="34" fill="#5ac8fa" fill-opacity="0.18" stroke="#5ac8fa" stroke-opacity="0.75"/>
    <circle cx="69" cy="88" r="34" fill="#ffffff" fill-opacity="0.1" stroke="#ffffff" stroke-opacity="0.4"/>
  </g>
  <text x="52" y="58" fill="#9be57f" font-family="Inter, Arial, sans-serif" font-size="18" font-weight="800" letter-spacing="1.2">PAID POLITELY NETWORK</text>
  <text x="52" y="116" fill="#ffffff" font-family="Inter, Arial, sans-serif" font-size="46" font-weight="900" letter-spacing="0">Own this placement</text>
  <text x="52" y="154" fill="#ffffff" fill-opacity="0.82" font-family="Inter, Arial, sans-serif" font-size="22" font-weight="650">Creator tools, platforms, services, and sponsors welcome</text>
  <text x="52" y="205" fill="#ffffff" font-family="Inter, Arial, sans-serif" font-size="18" font-weight="900">r/outdoorgirls</text>
  <text x="338" y="205" fill="#5ac8fa" font-family="Inter, Arial, sans-serif" font-size="18" font-weight="900">open-air gallery</text>
  <text x="728" y="205" fill="#ffffff" fill-opacity="0.92" font-family="Inter, Arial, sans-serif" font-size="18" font-weight="900">Contact us</text>
</svg>
