<svg xmlns="http://www.w3.org/2000/svg" width="1536" height="384" viewBox="0 0 1536 384" role="img" aria-labelledby="title desc">
  <title id="title">Real Public Nudity</title>
  <desc id="desc">Abstract flair-ladder identity for r/RealPublicNudity.</desc>
  <defs>
    <linearGradient id="rpnGrad" x1="0" x2="1" y1="0" y2="1">
      <stop offset="0" stop-color="#b8f05a"/>
      <stop offset="0.48" stop-color="#f7c843"/>
      <stop offset="1" stop-color="#f05a8a"/>
    </linearGradient>
    <radialGradient id="markGlow" cx="50%" cy="50%" r="60%">
      <stop offset="0" stop-color="#b8f05a" stop-opacity="0.38"/>
      <stop offset="1" stop-color="#b8f05a" stop-opacity="0"/>
    </radialGradient>
    <filter id="softShadow" x="-20%" y="-30%" width="140%" height="160%">
      <feDropShadow dx="0" dy="20" stdDeviation="24" flood-color="#000" flood-opacity="0.18"/>
    </filter>
  </defs>
  <g filter="url(#softShadow)">
    <circle cx="188" cy="192" r="142" fill="url(#markGlow)"/>
    <rect x="82" y="78" width="212" height="212" rx="56" fill="#151a14" stroke="url(#rpnGrad)" stroke-width="10"/>
    <path d="M142 246 L234 138" fill="none" stroke="url(#rpnGrad)" stroke-width="18" stroke-linecap="round"/>
    <path d="M126 226 H242M140 194H256M154 162H270" fill="none" stroke="#dfff9b" stroke-width="12" stroke-linecap="round" opacity="0.9"/>
    <circle cx="122" cy="116" r="17" fill="#b8f05a"/>
    <circle cx="257" cy="265" r="17" fill="#f05a8a"/>
    <text x="155" y="223" font-family="Inter, Arial, sans-serif" font-size="74" font-weight="950" fill="#f8fff1">r/</text>
  </g>
  <g transform="translate(360 103)">
    <text x="0" y="72" font-family="Inter, Arial, sans-serif" font-size="80" font-weight="950" letter-spacing="-3" fill="#f8fff1">Real Public</text>
    <text x="0" y="157" font-family="Inter, Arial, sans-serif" font-size="86" font-weight="950" letter-spacing="-3" fill="url(#rpnGrad)">Nudity</text>
    <g transform="translate(3 200)">
      <rect x="0" y="0" width="444" height="46" rx="23" fill="#b8f05a" opacity="0.12"/>
      <text x="24" y="31" font-family="Inter, Arial, sans-serif" font-size="24" font-weight="850" letter-spacing="3" fill="#dfff9b">FLAIR-RANKED PUBLICNESS</text>
    </g>
  </g>
  <g transform="translate(1220 112)" opacity="0.92">
    <rect x="0" y="0" width="210" height="160" rx="32" fill="none" stroke="#b8f05a" stroke-width="5" opacity="0.28"/>
    <path d="M42 116h126M54 84h114M66 52h102" stroke="url(#rpnGrad)" stroke-width="13" stroke-linecap="round"/>
    <circle cx="38" cy="116" r="9" fill="#f05a8a"/><circle cx="50" cy="84" r="9" fill="#f7c843"/><circle cx="62" cy="52" r="9" fill="#b8f05a"/>
  </g>
</svg>
