<svg xmlns="http://www.w3.org/2000/svg" viewBox="0 0 512 512" role="img" aria-labelledby="title desc">
  <title id="title">Outdoor Girls mark</title>
  <desc id="desc">A rounded scenic mark with sun, mountains, water and leaf.</desc>
  <defs>
    <linearGradient id="bg" x1="0" y1="0" x2="1" y2="1">
      <stop offset="0" stop-color="#07120d"/>
      <stop offset="1" stop-color="#15261a"/>
    </linearGradient>
    <linearGradient id="g" x1="0" y1="0" x2="1" y2="1">
      <stop offset="0" stop-color="#9be57f"/>
      <stop offset="0.52" stop-color="#ffd166"/>
      <stop offset="1" stop-color="#5ac8fa"/>
    </linearGradient>
    <filter id="s" x="-20%" y="-20%" width="140%" height="140%">
      <feDropShadow dx="0" dy="22" stdDeviation="22" flood-color="#000" flood-opacity="0.42"/>
    </filter>
  </defs>
  <rect x="40" y="40" width="432" height="432" rx="118" fill="url(#bg)" stroke="rgba(155,229,127,0.52)" stroke-width="12" filter="url(#s)"/>
  <circle cx="360" cy="143" r="50" fill="#ffd166"/>
  <path d="M95 349 L234 154 L323 267 L376 213 L440 349 Z" fill="url(#g)"/>
  <path d="M107 359 C173 287 256 279 390 359" fill="none" stroke="#5ac8fa" stroke-width="28" stroke-linecap="round" opacity="0.92"/>
  <path d="M171 310 C137 233 166 160 260 116 C284 194 250 270 171 310 Z" fill="#9be57f" opacity="0.98"/>
  <path d="M194 287 C220 236 239 183 253 132" fill="none" stroke="#07120d" stroke-width="14" stroke-linecap="round" opacity="0.68"/>
</svg>
